# AST/ASF file generated using VICON BodyLanguage
# -----------------------------------------------
:version 1.10
:name VICON
:units
  mass 1.0
  length 0.45
  angle deg
:documentation
   .ast/.asf automatically generated from VICON data using
   VICON BodyBuilder and BodyLanguage model FoxedUp or BRILLIANT.MOD
:root
   order TX TY TZ RX RY RZ
   axis XYZ
   position 0 0 0  
   orientation 0 0 0 
:bonedata
  begin
     id 1 
     name lhipjoint
     direction 0.612567 -0.751349 0.245431 
     length 2.42285 
     axis 0 0 0  XYZ
  end
  begin
     id 2 
     name lfemur
     direction 0.34202 -0.939693 0  
     length 7.11304  
     axis 0 0 20  XYZ
    dof rx ry rz
    limits (-160.0 20.0)
           (-70.0 70.0)
           (-60.0 70.0)
  end
  begin
     id 3 
     name ltibia
     direction 0.34202 -0.939693 0   
     length 7.84529   
     axis 0 0 20   XYZ
    dof rx
    limits (-10.0 170.0)
  end
  begin
     id 4 
     name lfoot
     direction 0.0779239 -0.214094 0.9737   
     length 1.97176   
     axis -90 7.62852e-016 20   XYZ
    dof rx rz
    limits (-45.0 90.0)
           (-70.0 20.0)
  end
  begin
     id 5 
     name ltoes
     direction 1.53565e-011 -4.21709e-011 1   
     length 0.993197   
     axis -90 7.62852e-016 20   XYZ
    dof rx
    limits (-90.0 20.0)
  end
  begin
     id 6 
     name rhipjoint
     direction -0.665722 -0.709315 0.231701   
     length 2.56642  
     axis 0 0 0  XYZ 
  end
  begin
     id 7 
     name rfemur
     direction -0.34202 -0.939693 0   
     length 7.32108   
     axis 0 0 -20   XYZ
    dof rx ry rz
    limits (-160.0 20.0)
           (-70.0 70.0)
           (-70.0 60.0)
  end
  begin
     id 8 
     name rtibia
     direction -0.34202 -0.939693 0   
     length 7.81254   
     axis 0 0 -20   XYZ
    dof rx
    limits (-10.0 170.0)
 end
 begin
     id 9 
     name rfoot
     direction -0.0832806 -0.228812 0.969902   
     length 2.08278  
     axis -90 -7.62852e-016 -20   XYZ
    dof rx rz
    limits (-45.0 90.0)
           (-20.0 70.0)
  end
  begin
     id 10 
     name rtoes
     direction -1.53589e-011 -4.22086e-011 1   
     length 1.04609   
     axis -90 -7.62852e-016 -20   XYZ
    dof rx
    limits (-90.0 20.0)
  end
  begin
     id 11 
     name lowerback
     direction -0.00506013 0.988403 -0.151766   
     length 2.01978   
     axis 0 0 0   XYZ
    dof rx ry rz
    limits (-20.0 45.0)
           (-30.0 30.0)
           (-30.0 30.0)
  end
  begin
     id 12 
     name upperback
     direction -0.00836389 0.99968 0.0238859   
     length 2.01276   
     axis 0 0 0   XYZ
    dof rx ry rz
    limits (-20.0 45.0)
           (-30.0 30.0)
           (-30.0 30.0)
  end
  begin
     id 13 
     name thorax
     direction -0.00684136 0.995386 0.0957043   
     length 2.07303   
     axis 0 0 0   XYZ
    dof rx ry rz
    limits (-20.0 45.0)
           (-30.0 30.0)
           (-30.0 30.0)
  end
  begin
     id 14 
     name lowerneck
     direction -0.0161045 0.999661 0.0204485   
     length 1.91243   
     axis 0 0 0   XYZ
    dof rx ry rz
    limits (-20.0 45.0)
           (-30.0 30.0)
           (-30.0 30.0)
  end
  begin
     id 15 
     name upperneck
     direction 0.0553583 0.990946 -0.122319   
     length 1.91574   
     axis 0 0 0   XYZ
    dof rx ry rz
    limits (-20.0 45.0)
           (-30.0 30.0)
           (-30.0 30.0)
  end
  begin
     id 16
     name head
     direction 0.0180273 0.998839 -0.0446756  
     length 1.92693  
     axis 0 0 0   XYZ
    dof rx ry rz
    limits (-20.0 45.0)
           (-30.0 30.0)
           (-30.0 30.0)
  end
  begin
     id 17 
     name lclavicle
     direction 0.945646 0.319323 -0.0615358  
     length 4.0076  
     axis 0 0 0   XYZ
    dof ry rz
    limits (-20.0 10.0)
           (0.0 20.0)
  end
  begin
     id 18 
     name lhumerus
     direction 1 -4.48967e-011 -2.79996e-027   
     length 5.64147   
     axis 180 -30 -90   XYZ
    dof rx ry rz
    limits (-60.0 90.0)
           (-90.0 90.0)
           (-90.0 90.0)
  end
  begin
     id 19
     name lradius
     direction 1 -4.48976e-011 -9.5122e-027   
     length 2.86444   
     axis 180 -30 -90   XYZ
    dof rx
    limits (-10.0 170.0)
  end
  begin
     id 20
     name lwrist
     direction 1 -4.48983e-011 -1.24047e-026   
     length 1.43222   
     axis 9.05591e-015 90 90   XYZ
    dof ry
    limits (-180.0 0.0)
 end
  begin
     id 21 
     name lhand
     direction 1 -4.4892e-011 -2.48094e-026   
     length 0.722123   
     axis 1.58305e-014 90 90   XYZ
    dof rx rz
    limits (-90.0 90.0)
           (-45.0 45.0)
  end
  begin
     id 22 
     name lfingers
     direction 1 -4.48895e-011 -4.96187e-026   
     length 0.582194   
     axis 3.1661e-014 90 90   XYZ
    dof rx
    limits (0.0 90.0)
  end
  begin
     id 23
     name lthumb
     direction 0.707107 -6.34961e-011 0.707107   
     length 0.835918   
     axis -90 45 2.85299e-015   XYZ
    dof rx rz
    limits (-45.0 45.0)
           (-45.0 45.0)
  end
  begin
     id 24 
     name rclavicle
     direction -0.932635 0.324218 -0.15835   
     length 3.65819  
     axis 0 0 0   XYZ 
    dof ry rz
    limits (-10.0 20.0)
           (-20.0 0.0)
  end
  begin
     id 25 
     name rhumerus
     direction -1 -4.48965e-011 -4.02296e-027  
     length 5.44729   
     axis 180 30 90   XYZ
    dof rx ry rz
    limits (-90.0 60.0)
           (-90.0 90.0)
           (-90.0 90.0)
  end
  begin
     id 26 
     name rradius
     direction -1 -4.48957e-011 -8.81087e-027   
     length 3.08821   
     axis 180 30 90   XYZ
    dof rx
    limits (-10.0 170.0)
  end
  begin
     id 27 
     name rwrist
     direction -1 -4.49015e-011 -1.24047e-026   
     length 1.5441   
     axis 9.05591e-015 -90 -90   XYZ
    dof ry
    limits (-180.0 0.0)
  end
  begin
     id 28
     name rhand
     direction -1 -4.4891e-011 -2.48094e-026   
     length 0.821049   
     axis 1.58305e-014 -90 -90   XYZ
    dof rx rz
    limits (-90.0 90.0)
           (-45.0 45.0)
  end
  begin
     id 29
     name rfingers
     direction -1 -4.48985e-011 -4.96187e-026   
     length 0.661951   
     axis 3.1661e-014 -90 -90   XYZ
    dof rx
    limits (0.0 90.0)
  end
  begin
     id 30
     name rthumb
     direction -0.707107 -6.34906e-011 0.707107   
     length 0.950433   
     axis -90 -45 -2.85299e-015   XYZ
    dof rx rz
    limits (-45.0 45.0)
           (-45.0 45.0)
  end
:hierarchy
  begin
    root lhipjoint rhipjoint lowerback
    lhipjoint lfemur
    lfemur ltibia
    ltibia lfoot
    lfoot ltoes
    rhipjoint rfemur
    rfemur rtibia
    rtibia rfoot
    rfoot rtoes
    lowerback upperback
    upperback thorax
    thorax lowerneck lclavicle rclavicle
    lowerneck upperneck
    upperneck head
    lclavicle lhumerus
    lhumerus lradius
    lradius lwrist
    lwrist lhand lthumb
    lhand lfingers
    rclavicle rhumerus
    rhumerus rradius
    rradius rwrist
    rwrist rhand rthumb
    rhand rfingers
  end

#!OML:ASF F:\VICON\USERDATA\INSTALL\rory3\rory3.ASF
:FULLY-SPECIFIED
:DEGREES
944
root 2.33951 17.5947 -0.425775 377.715 57.7735 365.939
lowerback 20.3604 -4.31175 2.3074
upperback 12.8136 -4.50724 1.55011
thorax 2.50864 -1.91332 1.15885
lowerneck 0.509231 -4.67737 0.0968404
upperneck -7.56518 -5.75123 7.95071
head -2.25201 -3.08776 2.6613
rclavicle 2.06736e-014 1.39149e-014
rhumerus -16.9166 18.4186 -86.2768
rradius 39.8556
rwrist -5.75718
rhand -15.8758 6.97659
rfingers 7.12502
rthumb 10.32 -22.7502
lclavicle 2.06736e-014 1.39149e-014
lhumerus -8.31557 -44.4571 75.6862
lradius 40.566
lwrist 53.8832
lhand -20.4022 7.12966
lfingers 7.12502
lthumb 5.95152 37.0261
rfemur -31.9161 14.6396 9.60221
rtibia 28.592
rfoot -10.0937 3.34912
rtoes 1.16733
lfemur -19.6094 15.2529 -24.9622
ltibia 21.7173
lfoot -17.9243 10.8652
ltoes -1.42327
945
root 2.36134 17.5988 -0.404563 376.904 58.2845 365.546
lowerback 19.7906 -4.32987 2.49473
upperback 12.541 -4.54906 1.57639
thorax 2.47756 -1.93473 1.06329
lowerneck 0.0830126 -4.61866 0.343647
upperneck -6.83493 -5.73761 7.63686
head -1.95005 -3.05264 2.47397
rclavicle -8.90555e-014 4.55217e-014
rhumerus -17.2619 18.5515 -86.327
rradius 39.7938
rwrist -5.87821
rhand -15.7562 6.93611
rfingers 7.12502
rthumb 10.4353 -22.7849
lclavicle -8.90555e-014 4.55217e-014
lhumerus -7.65575 -44.7961 75.4633
lradius 40.5356
lwrist 54.0695
lhand -20.3312 7.26791
lfingers 7.12502
lthumb 6.02007 37.1624
rfemur -31.0437 14.3422 10.2053
rtibia 28.4464
rfoot -10.2085 3.35134
rtoes 1.23726
lfemur -18.9394 14.9317 -24.4168
ltibia 21.6994
lfoot -17.9759 10.8895
ltoes -1.53818
946
root 2.39093 17.6046 -0.383289 376.132 58.8079 365.194
lowerback 19.0916 -4.33422 2.79185
upperback 12.2812 -4.56636 1.57682
thorax 2.51795 -1.93649 0.866501
lowerneck -0.169856 -4.58448 0.465775
upperneck -6.24154 -5.74032 7.43716
head -1.72027 -3.03207 2.3598
rclavicle 4.29375e-014 -4.77083e-015
rhumerus -17.5756 18.4176 -86.348
rradius 39.7
rwrist -5.91087
rhand -15.6294 6.99662
rfingers 7.12502
rthumb 10.5576 -22.7182
lclavicle 4.29375e-014 -4.77083e-015
lhumerus -6.95442 -45.1925 75.3095
lradius 40.5183
lwrist 54.2493
lhand -20.2966 7.3773
lfingers 7.12502
lthumb 6.05349 37.2708
rfemur -30.131 14.0078 10.771
rtibia 28.3054
rfoot -10.3653 3.38492
rtoes 1.00831
lfemur -18.1965 14.6538 -23.9172
ltibia 21.5828
lfoot -17.9993 10.8182
ltoes -1.97081
947
root 2.42229 17.6096 -0.359894 375.651 59.3002 365.183
lowerback 18.3954 -4.29758 2.90568
upperback 11.9971 -4.56061 1.5727
thorax 2.54664 -1.93819 0.763527
lowerneck -0.331018 -4.54094 0.274613
upperneck -5.70043 -5.71818 7.47509
head -1.51195 -2.99999 2.38403
rclavicle 1.59028e-014 4.05521e-014
rhumerus -17.9419 18.307 -86.3088
rradius 39.6935
rwrist -5.95145
rhand -15.6096 7.0909
rfingers 7.12502
rthumb 10.5768 -22.623
lclavicle 1.59028e-014 4.05521e-014
lhumerus -6.29359 -45.766 75.276
lradius 40.5338
lwrist 54.4573
lhand -20.2207 7.39577
lfingers 7.12502
lthumb 6.12673 37.2872
rfemur -29.2182 13.6944 11.1193
rtibia 28.1628
rfoot -10.6152 3.38499
rtoes 0.475393
lfemur -17.4349 14.3147 -23.6153
ltibia 21.414
lfoot -17.9834 10.7823
ltoes -2.26176
948
root 2.4529 17.613 -0.333131 375.232 59.8163 365.191
lowerback 17.6964 -4.28135 2.90967
upperback 11.6928 -4.59799 1.55445
thorax 2.56485 -1.96818 0.713654
lowerneck -0.639634 -4.42424 0.245486
upperneck -5.02386 -5.61115 7.3995
head -1.247 -2.92069 2.33538
rclavicle -5.1684e-015 5.56597e-015
rhumerus -18.3415 18.3604 -86.3479
rradius 39.8325
rwrist -6.04851
rhand -15.6292 6.99249
rfingers 7.12502
rthumb 10.5579 -22.7223
lclavicle -5.1684e-015 5.56597e-015
lhumerus -5.66447 -46.2515 75.1698
lradius 40.602
lwrist 54.7855
lhand -20.0748 7.46655
lfingers 7.12502
lthumb 6.2676 37.3538
rfemur -28.3606 13.4434 11.4228
rtibia 28.0072
rfoot -10.8578 3.39343
rtoes 0.655574
lfemur -16.7011 13.8654 -23.3093
ltibia 21.193
lfoot -17.9888 10.7701
ltoes -1.95915
949
root 2.48225 17.6146 -0.306915 374.553 60.3056 364.916
lowerback 16.9991 -4.24986 2.98424
upperback 11.4097 -4.60485 1.57514
thorax 2.60772 -1.97971 0.659994
lowerneck -1.01295 -4.27533 0.367945
upperneck -4.29456 -5.47132 7.12028
head -0.967241 -2.82288 2.19351
rclavicle 5.28767e-014 -3.10104e-014
rhumerus -18.6457 18.4204 -86.3388
rradius 39.9063
rwrist -6.06903
rhand -15.5836 6.9653
rfingers 7.12502
rthumb 10.6019 -22.7473
lclavicle 5.28767e-014 -3.10104e-014
lhumerus -4.97995 -46.7599 75.0216
lradius 40.6578
lwrist 55.0728
lhand -19.9234 7.57069
lfingers 7.12502
lthumb 6.41374 37.4536
rfemur -27.5096 13.208 11.8772
rtibia 27.8506
rfoot -11.0471 3.38907
rtoes 0.826149
lfemur -15.936 13.4427 -22.8681
ltibia 20.9277
lfoot -17.9723 10.8317
ltoes -1.83465
950
root 2.51537 17.6195 -0.283224 373.789 60.8387 364.624
lowerback 16.3687 -4.26355 3.09644
upperback 11.1122 -4.66106 1.60767
thorax 2.60183 -2.01449 0.609427
lowerneck -1.26501 -4.11894 0.446564
upperneck -3.62661 -5.31479 6.79972
head -0.730289 -2.72064 2.0545
rclavicle -5.32743e-014 1.27222e-014
rhumerus -18.9867 18.5983 -86.3068
rradius 39.9921
rwrist -6.08056
rhand -15.5472 6.81829
rfingers 7.12502
rthumb 10.6369 -22.8925
lclavicle -5.32743e-014 1.27222e-014
lhumerus -4.50501 -47.242 75.0605
lradius 40.7431
lwrist 55.1266
lhand -19.9021 7.55148
lfingers 7.12502
lthumb 6.43429 37.4337
rfemur -26.5439 12.8785 12.3633
rtibia 27.6781
rfoot -11.2625 3.39884
rtoes 0.108327
lfemur -15.0825 12.9401 -22.4105
ltibia 20.6631
lfoot -17.9911 10.9844
ltoes -2.64857
951
root 2.54845 17.624 -0.25909 373.211 61.3725 364.548
lowerback 15.7956 -4.2771 3.06994
upperback 10.79 -4.73135 1.61958
thorax 2.5504 -2.06398 0.619601
lowerneck -1.51949 -3.94305 0.453645
upperneck -2.89021 -5.1317 6.54677
head -0.470398 -2.60424 1.95165
rclavicle -7.95139e-016 3.73715e-014
rhumerus -19.3618 18.8309 -86.2985
rradius 40.1907
rwrist -6.16192
rhand -15.6254 6.45875
rfingers 7.12502
rthumb 10.5615 -23.2559
lclavicle -7.95139e-016 3.73715e-014
lhumerus -4.11384 -47.6709 75.1353
lradius 40.9749
lwrist 55.3253
lhand -19.8824 7.58494
lfingers 7.12502
lthumb 6.45338 37.4666
rfemur -25.5758 12.4969 12.7325
rtibia 27.4888
rfoot -11.4254 3.41608
rtoes -0.292531
lfemur -14.236 12.4408 -22.075
ltibia 20.4036
lfoot -18.0432 11.0769
ltoes -3.48362
952
root 2.58033 17.6262 -0.234451 372.664 61.8725 364.487
lowerback 15.2234 -4.2637 2.99591
upperback 10.478 -4.77142 1.60277
thorax 2.51355 -2.09948 0.620943
lowerneck -1.87344 -3.71063 0.472377
upperneck -2.0077 -4.87958 6.35758
head -0.150644 -2.44928 1.86692
rclavicle 1.04163e-013 -7.31528e-014
rhumerus -19.6644 18.9975 -86.314
rradius 40.3288
rwrist -6.21929
rhand -15.6834 6.36706
rfingers 7.12502
rthumb 10.5056 -23.3504
lclavicle 1.04163e-013 -7.31528e-014
lhumerus -3.69817 -48.1246 75.125
lradius 41.3492
lwrist 55.6299
lhand -19.9906 7.87311
lfingers 7.12502
lthumb 6.34886 37.758
rfemur -24.6411 12.1875 13.0602
rtibia 27.296
rfoot -11.6211 3.4015
rtoes 0.00961821
lfemur -13.3757 12.0018 -21.7638
ltibia 20.0829
lfoot -18.1027 11.0031
ltoes -2.98087
953
root 2.61552 17.6294 -0.210786 372.036 62.4179 364.309
lowerback 14.6148 -4.26935 3.03111
upperback 10.1698 -4.82477 1.57033
thorax 2.49271 -2.13516 0.544447
lowerneck -2.39304 -3.50382 0.61226
upperneck -0.977769 -4.67484 6.06123
head 0.237305 -2.31362 1.72692
rclavicle -2.62396e-014 1.78906e-014
rhumerus -19.9104 18.9522 -86.3706
rradius 40.4008
rwrist -6.05458
rhand -15.6089 6.35495
rfingers 7.12502
rthumb 10.5774 -23.3589
lclavicle -2.62396e-014 1.78906e-014
lhumerus -3.34659 -48.473 75.134
lradius 41.6907
lwrist 55.7192
lhand -19.8642 8.00338
lfingers 7.12502
lthumb 6.47092 37.8845
rfemur -23.6932 11.8343 13.4391
rtibia 27.092
rfoot -11.8356 3.39719
rtoes 0.0387869
lfemur -12.5289 11.5222 -21.4175
ltibia 19.7459
lfoot -18.1226 11.0016
ltoes -2.84078
954
root 2.65471 17.6335 -0.186578 371.506 62.9708 364.21
lowerback 13.9982 -4.29863 3.02065
upperback 9.80906 -4.91549 1.54918
thorax 2.42635 -2.19417 0.510164
lowerneck -2.82994 -3.29906 0.711106
upperneck 0.0513364 -4.46667 5.68246
head 0.610965 -2.18007 1.57591
rclavicle 4.79071e-014 0
rhumerus -20.3066 19.0367 -86.4281
rradius 40.6361
rwrist -6.05975
rhand -15.5083 6.18814
rfingers 7.12502
rthumb 10.6745 -23.5207
lclavicle 4.79071e-014 0
lhumerus -3.21109 -48.6645 75.3884
lradius 42.0066
lwrist 55.6137
lhand -19.7104 7.89016
lfingers 7.12502
lthumb 6.61938 37.7667
rfemur -22.7679 11.4431 13.7603
rtibia 26.8745
rfoot -12.0417 3.39756
rtoes 0.0754253
lfemur -11.6984 11.0125 -21.1416
ltibia 19.4002
lfoot -18.1051 11.0961
ltoes -3.2317
955
root 2.69282 17.6373 -0.161647 370.736 63.5337 363.814
lowerback 13.3986 -4.31614 3.10785
upperback 9.42241 -4.97896 1.58156
thorax 2.32373 -2.23717 0.475744
lowerneck -3.18449 -3.06743 0.713008
upperneck 1.02976 -4.21028 5.36974
head 0.961458 -2.02689 1.4702
rclavicle 2.92213e-014 -5.56597e-015
rhumerus -20.6752 19.1543 -86.4222
rradius 40.8273
rwrist -6.15654
rhand -15.4851 6.16066
rfingers 7.12502
rthumb 10.6968 -23.547
lclavicle 2.92213e-014 -5.56597e-015
lhumerus -3.02438 -49.0619 75.6203
lradius 42.3721
lwrist 55.7022
lhand -19.6256 7.57759
lfingers 7.12502
lthumb 6.70123 37.4515
rfemur -21.8661 11.1024 14.2088
rtibia 26.6236
rfoot -12.2346 3.37208
rtoes 0.352259
lfemur -10.9179 10.5837 -20.7237
ltibia 19.0544
lfoot -18.0931 11.0608
ltoes -2.98187
956
root 2.72968 17.6409 -0.137688 370.145 64.1125 363.592
lowerback 12.7971 -4.32635 3.10795
upperback 9.04744 -5.04104 1.59309
thorax 2.24246 -2.28235 0.466214
lowerneck -3.4503 -2.83877 0.723847
upperneck 1.8281 -3.94344 5.10109
head 1.24492 -1.87542 1.38262
rclavicle -1.64991e-014 1.23246e-014
rhumerus -21.0267 19.5546 -86.3861
rradius 41.1048
rwrist -6.49761
rhand -15.5647 6.21867
rfingers 7.12502
rthumb 10.6201 -23.493
lclavicle -1.64991e-014 1.23246e-014
lhumerus -2.72041 -49.5454 75.6875
lradius 42.8346
lwrist 55.9872
lhand -19.3747 7.51355
lfingers 7.12502
lthumb 6.94347 37.3797
rfemur -20.9802 10.7333 14.5608
rtibia 26.3691
rfoot -12.4449 3.25711
rtoes -0.338962
lfemur -10.1698 10.1115 -20.4052
ltibia 18.6865
lfoot -18.0496 10.9688
ltoes -2.48036
957
root 2.76725 17.6428 -0.114991 369.595 64.6514 363.426
lowerback 12.2117 -4.33509 3.08747
upperback 8.70744 -5.1007 1.57338
thorax 2.19129 -2.32497 0.434585
lowerneck -3.76782 -2.61703 0.734353
upperneck 2.57554 -3.68173 4.84688
head 1.52552 -1.72845 1.30147
rclavicle -7.35503e-015 1.35174e-014
rhumerus -21.3458 20.0425 -86.3592
rradius 41.4414
rwrist -6.82939
rhand -15.6971 6.13538
rfingers 7.12502
rthumb 10.4923 -23.5828
lclavicle -7.35503e-015 1.35174e-014
lhumerus -2.39711 -49.9229 75.7322
lradius 43.3242
lwrist 56.3753
lhand -19.1289 7.60932
lfingers 7.12502
lthumb 7.18072 37.4675
rfemur -20.0965 10.3733 14.861
rtibia 26.1042
rfoot -12.6228 3.21968
rtoes -0.160081
lfemur -9.41669 9.67805 -20.1404
ltibia 18.3216
lfoot -17.9672 10.9424
ltoes -2.58608
958
root 2.80492 17.645 -0.090148 368.962 65.1292 363.169
lowerback 11.6397 -4.28401 3.05413
upperback 8.38637 -5.08081 1.55125
thorax 2.1571 -2.3275 0.399145
lowerneck -4.12738 -2.38549 0.88313
upperneck 3.31896 -3.40866 4.51043
head 1.81106 -1.57715 1.17229
rclavicle -2.34566e-014 2.34566e-014
rhumerus -21.5486 19.9772 -86.3034
rradius 41.6251
rwrist -6.7704
rhand -15.723 6.28921
rfingers 7.12502
rthumb 10.4674 -23.4302
lclavicle -2.34566e-014 2.34566e-014
lhumerus -2.03643 -50.2797 75.841
lradius 43.7627
lwrist 56.6935
lhand -18.9677 7.69183
lfingers 7.12502
lthumb 7.33634 37.5446
rfemur -19.2292 10.1408 15.1818
rtibia 25.8476
rfoot -12.849 3.14592
rtoes -0.296326
lfemur -8.64619 9.27994 -19.8399
ltibia 17.9368
lfoot -17.954 10.9466
ltoes -2.76183
